<?xml version="1.0"?>
<svg xmlns="http://www.w3.org/2000/svg" xmlns:xlink="http://www.w3.org/1999/xlink" version="1.1" viewBox="0 0 192 192" width="100px" height="100px"><g fill="none" fill-rule="nonzero" stroke="none" stroke-width="1" stroke-linecap="butt" stroke-linejoin="miter" stroke-miterlimit="10" stroke-dasharray="" stroke-dashoffset="0" font-family="none" font-weight="none" font-size="none" text-anchor="none" style="mix-blend-mode: normal"><path d="M0,192v-192h192v192z" fill="none"/><g fill="#e67e22"><g id="surface1"><path d="M26.88,15.36c-10.545,0 -19.2,8.655 -19.2,19.2v92.16c0,10.545 8.655,19.2 19.2,19.2h15.72c0.525,4.62 0.465,8.895 -0.72,12.48c-1.455,4.41 -4.17,8.115 -9.24,11.16c-1.425,0.9 -2.085,2.625 -1.65,4.245c0.435,1.62 1.89,2.775 3.57,2.835c16.29,0 34.965,-8.505 44.4,-30.72h86.16c10.545,0 19.2,-8.655 19.2,-19.2v-92.16c0,-10.545 -8.655,-19.2 -19.2,-19.2zM26.88,23.04h138.24c6.36,0 11.52,5.16 11.52,11.52v92.16c0,6.36 -5.16,11.52 -11.52,11.52h-88.32c-1.605,0 -3.045,1.005 -3.6,2.52c-5.97,16.29 -16.635,24.045 -27.72,26.88c1.5,-2.145 2.925,-4.41 3.72,-6.84c1.995,-6.06 1.83,-12.69 0.6,-19.44c-0.345,-1.785 -1.89,-3.09 -3.72,-3.12h-19.2c-6.36,0 -11.52,-5.16 -11.52,-11.52v-92.16c0,-6.36 5.16,-11.52 11.52,-11.52z"/></g></g></g></svg>
